/* XPM */
static char *_87420ebcf4f452cbd314a97ed1b91afajBzEArgRlsa3mo5[] = {
/* columns rows colors chars-per-pixel */
"32 32 158 2 ",
"   c None",
".  c #413F3F",
"X  c #423F3F",
"o  c #433F3F",
"O  c #473E3E",
"+  c #4E3B3B",
"@  c #4F3C3C",
"#  c #4C3E3E",
"$  c #503B3B",
"%  c #513B3B",
"&  c #523A3A",
"*  c #533B3B",
"=  c #543B3B",
"-  c #563A3A",
";  c #513C3C",
":  c #5C3A3A",
">  c #603636",
",  c #603737",
"<  c #633636",
"1  c #6C3333",
"2  c #683434",
"3  c #683535",
"4  c #6A3535",
"5  c #6C3434",
"6  c #613838",
"7  c #633B3B",
"8  c #643A3A",
"9  c #643B3B",
"0  c #653B3B",
"q  c #703333",
"w  c #713333",
"e  c #753333",
"r  c #793030",
"t  c #7A3232",
"y  c #7F3557",
"u  c #7F3558",
"i  c #7E3559",
"p  c #7D3659",
"a  c #77385F",
"s  c #78385E",
"d  c #6E3B66",
"f  c #6A3D69",
"g  c #683D6B",
"h  c gray25",
"j  c #414141",
"k  c gray26",
"l  c gray27",
"z  c gray28",
"x  c gray29",
"c  c #4B4B4B",
"v  c #4C4C4C",
"b  c #4E4E4E",
"n  c gray31",
"m  c #535353",
"M  c #565656",
"N  c gray34",
"B  c #585858",
"V  c #5B5B5B",
"C  c #5F5F5F",
"Z  c #5D4173",
"A  c #5F4172",
"S  c #594377",
"D  c #574378",
"F  c #56447A",
"G  c #53457C",
"H  c #584378",
"J  c #614071",
"K  c gray38",
"L  c #626262",
"P  c gray39",
"I  c #656565",
"U  c #676767",
"Y  c #686868",
"T  c #6A6A6A",
"R  c gray42",
"E  c #6C6C6C",
"W  c #6D6D6D",
"Q  c gray43",
"!  c #6F6F6F",
"~  c #717171",
"^  c #727272",
"/  c gray45",
"(  c #747474",
")  c gray46",
"_  c #767676",
"`  c #777777",
"'  c gray47",
"]  c #797979",
"[  c #7B7B7B",
"{  c #7C7C7C",
"}  c gray49",
"|  c #7E7E7E",
" . c gray50",
".. c #862B2B",
"X. c #872C2C",
"o. c #8B2B2B",
"O. c #8F2929",
"+. c #8C2B2C",
"@. c #8E2B2C",
"#. c #892C2D",
"$. c #9F272C",
"%. c #9F262D",
"&. c #932929",
"*. c #902A2A",
"=. c #96282C",
"-. c #9A282C",
";. c #982A2E",
":. c #962A35",
">. c #9E2830",
",. c #9D2832",
"<. c #9E2933",
"1. c #9D2A37",
"2. c #942B3A",
"3. c #952B3B",
"4. c #952B3C",
"5. c #9A2A3B",
"6. c #9C293B",
"7. c #9B2A3C",
"8. c #992A3E",
"9. c #992B3F",
"0. c #9A2B3F",
"q. c #A22425",
"w. c #A0262D",
"e. c #A0272E",
"r. c #C51B1C",
"t. c #922E46",
"y. c #813456",
"u. c #803557",
"i. c #3D4D8D",
"p. c #3E4C8C",
"a. c #3E4D8D",
"s. c #3D4D8E",
"d. c #374F92",
"f. c #3A4E90",
"g. c #2F5299",
"h. c #355094",
"j. c #315198",
"k. c #305298",
"l. c #305299",
"z. c #464A86",
"x. c #404C8B",
"c. c #808080",
"v. c #818181",
"b. c #838383",
"n. c #848484",
"m. c gray52",
"M. c gray53",
"N. c #888888",
"B. c gray54",
"V. c #8B8B8B",
"C. c gray55",
"Z. c gray56",
"A. c gray57",
"S. c gray58",
"D. c #959595",
"F. c #979797",
"G. c #989898",
"H. c gray60",
/* pixels */
"                                                                ",
"                      H.H.H.H.H.H.H.H.H.H.                      ",
"                  H.H.H.F.c./ Q Q ` c.F.H.H.H.                  ",
"              H.H.G.] M h h h h h h h h B { G.H.H.              ",
"            H.H.c.c h h h h h h h h h h h h b b.H.H.            ",
"          H.F.I h h h h h h h h h h h h h h h h Q H.H.          ",
"        H.H.V h h O e 1 o h h h h h h h % t < o h L H.H.        ",
"      H.H.L h h h %.J g -.o h h h h h - 0.H u.t h h R H.H.      ",
"      H.] h h h : a g.g.Z X.h h h h h ..z.g.g.:.h h h c.H.      ",
"    F.F.z h h h 0 d g.g.g.y.3 h h h h *.f.g.g.3.h h h c F.H.    ",
"    H.Q h h h h 0 d g.g.g.j.5.% h h h O.f.g.g.3.h h h h ` H.    ",
"  H.H.c h h h h 0 d g.g.g.g.x.$.o h h O.f.g.g.3.h h h h m H.H.  ",
"  H.N.h h h h h : d g.g.g.g.g.S +.o h O.f.g.g.4.h h h h h Z.H.  ",
"  H./ h h h h h < d g.g.d.g.g.g.i 3 h O.f.g.g.4.h h h h h { H.  ",
"  H.I h h h h h < d g.g.y a g.g.j.0.% *.f.g.g.4.h h h h h ! H.  ",
"  H.L h h h h h < d g.g.y q.G g.g.a.w.&.f.g.g.4.h h h h h U H.  ",
"  H.C h h h h h 6 d g.g.y.% %.a.g.g.F r.f.g.g.3.h h h h h I H.  ",
"  H.Y h h h h h 6 d g.g.y.+ ; 9.k.g.g.f h.g.g.3.h h h h h / H.  ",
"  H.` h h h h h , d g.g.u.@ h 1 i g.g.g.g.g.g.3.h h h h h { H.  ",
"  H.N.h h h h h < d g.g.y + h h O.D g.g.g.g.g.4.h h h h h A.H.  ",
"  H.H.b h h h h 6 d g.g.y.@ h h h %.p.j.g.g.g.3.h h h h V H.H.  ",
"    H./ h h h h 0 d g.g.y @ h h h $ 0.l.g.g.l.3.h h h h ] H.    ",
"    H.F.c h h h 7 d g.g.y.@ h h h h 3 y.g.g.g.3.h h h m H.H.    ",
"      H. .h h h # t.g.l.6.o h h h h h +.Z j.a.&.h h h n.H.      ",
"      H.H.T h h h w <.<.3 h h h h h h h #.6.;.; h h / H.H.      ",
"        H.H.L h h h h h h h h h h h h h h h h h h T H.H.        ",
"          H.H.Q h h h h h h h h h h h h h h h h / H.H.          ",
"            H.H.n.m h h h h h h h h h h h h V N.H.H.            ",
"              H.H.H.c.L z h h o h h h z L n.H.H.H.              ",
"                  H.H.H.G.N.{ ` ) | C.H.H.H.H.                  ",
"                      H.H.H.H.H.H.H.H.H.H.                      ",
"                                                                "
};
