/* XPM */
static char *_850b16c189d4dced00b94c216bfadc4z2ArnbjDcgJL2XDp[] = {
/* columns rows colors chars-per-pixel */
"16 16 86 1 ",
"  c None",
". c #403F3F",
"X c #453E3E",
"o c #4B3C3C",
"O c #4A3D3D",
"+ c #4C3C3C",
"@ c #57393A",
"# c #59393B",
"$ c #5A393A",
"% c #5C383A",
"& c #653535",
"* c #673434",
"= c #693539",
"- c #6F3439",
"; c #6D353E",
": c #673740",
"> c #6B3643",
", c #673849",
"< c #67384E",
"1 c #67394F",
"2 c #683849",
"3 c #6C3849",
"4 c #693A4E",
"5 c #683A4F",
"6 c #703749",
"7 c #72364B",
"8 c #72374D",
"9 c #6B3850",
"0 c #693B50",
"q c #653D63",
"w c #663C63",
"e c #643D65",
"r c #6C3C65",
"t c #623E68",
"y c #613F6A",
"u c #623F6A",
"i c gray25",
"p c gray28",
"a c #494949",
"s c #4B4B4B",
"d c #505050",
"f c gray32",
"g c #535353",
"h c #555555",
"j c #565656",
"k c gray34",
"l c #585858",
"z c gray35",
"x c #5D5D5D",
"c c #5F5F5F",
"v c #4D467E",
"b c #4D467F",
"n c #606060",
"m c gray39",
"M c #646464",
"N c #656565",
"B c gray40",
"V c #6A6A6A",
"C c gray42",
"Z c #7B7B7B",
"A c gray49",
"S c gray50",
"D c #852D2E",
"F c #86314C",
"G c #3B4E8F",
"H c #374F92",
"J c #3A4E90",
"K c #384F92",
"L c #2F5299",
"P c #315197",
"I c #335096",
"U c #345095",
"Y c #808080",
"T c #818181",
"R c gray51",
"E c #848484",
"W c #868686",
"Q c gray54",
"! c #8B8B8B",
"~ c #8D8D8D",
"^ c #8E8E8E",
"/ c gray56",
"( c #909090",
") c #979797",
"_ c #989898",
"` c gray60",
/* pixels */
"       ``       ",
"    `YNllNR`    ",
"   !giiiiiij~   ",
"  !p#4@iiX7:a~  ",
" )f.4LeOi*Jyif` ",
" Zii4LL7i*UyiiS ",
" cii<LPJ;*Uyiim ",
"`fii1LFHbDUyiij`",
"_fii4L27LrIyiij`",
" mii<L2OeLPyiiN ",
" Sii0L,i$bLyiiR ",
" )fi3L>ii;Gwij` ",
"  ~aO-Oiii=$a(  ",
"   ~j..iiiil(   ",
"    `WVccVW`    ",
"      ````      "
};
