/* XPM */
static char *f71f0163685b48a5ca37e57e3885c5aaM2kneqwGKxKjvle6[] = {
/* columns rows colors chars-per-pixel */
"64 64 111 2 ",
"   c None",
".  c #3F3F3F",
"X  c #433F3F",
"o  c #4C3D3D",
"O  c #5E3737",
"+  c #533A3A",
"@  c #5D3939",
"#  c #7E2F2F",
"$  c #633636",
"%  c #6B3636",
"&  c #613A3A",
"*  c #683838",
"=  c #763131",
"-  c #7D365A",
";  c #6E3C66",
":  c #673E6C",
">  c #6A3D69",
",  c #723A63",
"<  c #404040",
"1  c #4B4B4B",
"2  c #545454",
"3  c #5B5B5B",
"4  c #52467D",
"5  c #604071",
"6  c #636363",
"7  c #6B6B6B",
"8  c #747474",
"9  c #7D7D7D",
"0  c #B61F1F",
"q  c #BD1D1D",
"w  c #BF1E24",
"e  c #BB1F28",
"r  c #832D2D",
"t  c #8C2D2D",
"y  c #952727",
"u  c #9D2525",
"i  c #932B2B",
"p  c #843131",
"a  c #8A3737",
"s  c #A62323",
"d  c #AB2323",
"f  c #B32222",
"g  c #B92727",
"h  c #B4222D",
"j  c #B92029",
"k  c #AE2432",
"l  c #A72738",
"z  c #A2293C",
"x  c #B02330",
"c  c #C51C1E",
"v  c #CB1A1A",
"b  c #C41D21",
"n  c #8F2F4B",
"m  c #962D46",
"M  c #9C2B42",
"N  c #912F4A",
"B  c #8A314F",
"V  c #8E304C",
"C  c #8C314E",
"Z  c #873251",
"A  c #873252",
"S  c #863353",
"D  c #843354",
"F  c #833455",
"G  c #3E4D8D",
"H  c #3D4D8E",
"J  c #374F92",
"K  c #364F93",
"L  c #374F93",
"P  c #2F5299",
"I  c #365093",
"U  c #315197",
"Y  c #335096",
"T  c #325196",
"R  c #335196",
"E  c #355094",
"W  c #365094",
"Q  c #315198",
"!  c #305298",
"~  c #4D4780",
"^  c #4E4780",
"/  c #454A87",
"(  c #464A86",
")  c #4B4882",
"_  c #4A4883",
"`  c #484985",
"'  c #424B89",
"]  c #444A88",
"[  c #818181",
"{  c gray51",
"}  c #838383",
"|  c gray52",
" . c #868686",
".. c #858585",
"X. c #898989",
"o. c gray54",
"O. c #8B8B8B",
"+. c gray55",
"@. c #8E8E8E",
"#. c gray56",
"$. c #8F8F8F",
"%. c #909090",
"&. c gray57",
"*. c #939393",
"=. c gray58",
"-. c gray59",
";. c #979797",
":. c #959595",
">. c #989898",
",. c gray60",
"<. c #999999",
/* pixels */
"                                                                                                                                ",
"                                                                                                                                ",
"                                                  ,.,.,.,.,.,.,.,.,.,.,.,.,.,.                                                  ",
"                                          ,.,.,.,.,.,.,.,.,.,.,.,.,.,.,.,.,.,.,.,.,.,.                                          ",
"                                      ,.,.,.,.,.,.,.,.,.,.,.,.,.,.,.,.,.,.,.,.,.,.,.,.,.,.                                      ",
"                                  ,.,.,.,.,.,.,.,.| 8 6 2 1 . < < < 1 2 6 8 +.,.,.;.,.,.,.,.,.                                  ",
"                              ,.,.,.>.>.,.>.9 3 < < < < . < < < < < < < < . < 1 6 [ ,.,.,.,.,.,.,.                              ",
"                            ,.,.,.,.,.*.7 1 < < < < < < . . < < < < < < < . . . < < 1 8 ;.,.,.,.,.,.                            ",
"                          ,.,.,.,.=.7 < < < < < < < < < < < < < < < < < . < < < < < < < 1 8 -.,.,.,.,.                          ",
"                        ,.,.,.,...1 . . < < < < < < < < < < < < < < < < < < < < < < < < < < 2 X.,.,.,.,.                        ",
"                    ,.,.,.,.-.6 < < < < < < < < < < < < < < < < < < < < < < < < < < < . < < < < 8 ,.,.,.,.,.                    ",
"                    ,.,.,.*.3 < < < < < < < < < < < < < < < < < < < < < < < < < < < < < < < < < < 6 ,.,.,.,.                    ",
"                  ,.,.,.#.1 < < < < < < . . . . < < < < < < < < < < . < < < . . < < . . < < . < < < 3 -.,.,.,.                  ",
"                ,.,.,.-.2 . < < < < < @ y g f t o < < < < < < < < < < < < < . . < p d g s % . . < < . 3 ,.,.,.,.                ",
"              ,.,.,.,.2 . < < < < < * v l - F j q o < < < < < < < < < < < < < o g w Z - M v p . < < . < 6 ,.,.,.,.              ",
"            ,.,.,.,.3 < < < < < < X q S ! ! P T k e X < < < < < < < < < < < < i e H P P ! : v @ < < < < < 7 ,.,.,.,.            ",
"            ,.,.,.8 < < < < < < < % v R ! P P P H j y . . . < < < < < < . X X c ; P P P P P k t < < < . < < | ,.,.,.            ",
"          ,.,.,.X.1 < < < < < < . a k P ! P P P P 4 v # < . < < < . < < . . o v 4 P P P P P Z u < < < < < < 1 ,.,.,.,.          ",
"          ,.,.,.3 < < < < < < < . a k P P P P P P P ; v @ < < < < < < < . . + v ' P P P P P D s < < < < < < < 7 ,.,.,.          ",
"        ,.,.,.| < < < < < < < < . a k P P P P P P P ! M f o < < < < < < < < + v ' P P P P P D s < < < < < < < < *.>.,.,.        ",
"        ,.,.,.3 . < < < < < < < < a k P P P P P P P P R j u < . < < < < < < + v ] P P P P P D s < < < < < < < < 6 ,.,.,.        ",
"      ,.,.,.X.. < < < < . < < < < a k P P P P P P P P P _ v r . < < < < < < + v ] P P P P P D s < < < < < < < < 1 -.,.,.,.      ",
"      ,.,.,.6 < < < < < < < < < < a k ! P P P P P P P P P , v O < < < . . . + v ] P P P P P D s . < < < . < < < . 8 ,.,.,.      ",
"      ,.,.-.1 < < < < < < < < < < a k P P P P P P P P P P P m q o < < < . X + v ] P P P P P D s < < < < < < < < < 2 ,.,.,.      ",
"    ,.,.,.[ < < < < < < < < . < < # k P P P P P P P P P P P K h s < < < < < + v ] P P P P P D s < < < < < < < < < < *.,.,.,.    ",
"    ,.,.,.7 < . < < < < < < < < < r k P P P P P P P P P P P P _ c r < . . < + v ] P P P P P F d . < < < < < < < < < 9 ,.,.,.    ",
"    ,.,.>.3 < < . < < < < < < < X # k ! P P P P P P P P P P P P : v $ . . . + v ] P P P P P D s < < < < . < < < < < 7 ,.,.,.    ",
"    ,.,.-.1 < < < < < < < < < < . r k P P P P P P ~ K P P P P P ! m c o . X + v ] P P P P P D s < < < < < < < < < < 2 ,.,.,.    ",
"    ,.,.*.< < < < < < < < < < < . r k P P P P P K v D P P P P P P I x d . < + v ] P P P P P D d < < < < < < < < < < 1 ,.,.,.    ",
"    ,.,.X.. < < < < . < < < < . . p k P P P P P E v v : P P P P P P _ c t X + v ] P P P P P D s < < < < < < < < < < < -.,.,.    ",
"  ,.,.,.9 < < < < < < < < < < < < p k P P P P P R v d c ' P P P P P ! 5 v % + v ] P P P P P D s < < < < < < < < < < < #.,.,.,.  ",
"  ,.,.,.[ < < < < < < < < < < < < p k P P P P P I v $ f l E P P P P ! ! N c $ v ' P P P P P D s < < . < < < < < < < . #.,.,.,.  ",
"  ,.,.,.^ < < < < < < < < < < < X p k P P P P P I v O o c Z P P P P P P ! x 0 v ' P P P P P D s X < . < < < < < < . . #.,.,.,.  ",
"  ,.,.,.&.< < < < < < < < < < < . p k P P P P P I v O < % v : P P P P P P / c v ' P P P P P D s . < < < < < < < < < . #.,.,.,.  ",
"    ,.,.;.o < < < < < < < < < < . p k P P P P P I v O < . t c ' P P P P P P 5 v ' P P P P P D s < < < < < < . < < < 1 ,.,.,.    ",
"    ,.,.:.X < < < < < < < < < < < r k P P P P P R v $ . . X f k E P P P P ! ! _ E P P P P P D s < < < < < < < < < < 1 -.,.,.    ",
"    ,.,.,.1 < < < < < < < < < < < r k P P P P P I v O < < < o c n E P P P P P P P P P P P P D s < < < < < < < < < < 3 ,.,.,.    ",
"    ,.,.,.3 < < < < < < < < < < < r k P P P P P I v O < < < . $ v : P P P P P P P P P P P E D s . < < < < . < < < < 7 ,.,.,.    ",
"    ,.,.,.7 < < < < < < < < < < . r k P P P P P R v O < < < < < r c / P P P P P P P P P P P D s < < < < < < < < < < 9 ,.,.,.    ",
"    ,.,.,.| < < < . < < < < < < . # k P P P P P I v O < < . < < < d h I P P P P P P P P P P D s < < < < < < < < . 1 *.,.,.,.    ",
"      ,.,.,.2 < < < < < < < < < . p k ! P P P P I v O < < < < < < o c n P P P P P P P P P P D s < < < < < < < < . 3 ,.,.,.      ",
"      ,.,.,.7 < < < < < < < < < < a k ! P P P P R v O < < < < < < < $ v ; P P P P P P P P P D s < < < < < < < < . 9 ,.,.,.      ",
"      ,.,.,.&.< < < < < < < < < < a k ! P P P P I v O < < < < < < < . r v _ P ! P P P P P P D s < < . < < < < . 1 ,.,.,.,.      ",
"        ,.,.,.6 < < < < < < < < < a k ! P P P P I v O < . < < < < < < < s h R ! P P P P P P D s < < < < < < < . 7 ,.,.,.        ",
"        ,.,.,.X.< < < < < < < < . a k ! P P P P I v O < < < < < < . < < o q N ! P P P P P P S s < < < < < < < 1 *.,.,.,.        ",
"        ,.,.,.,.6 < < < < < < < . a k ! P P P P K v @ < < < < < < < < < < @ v , P P P P P P B u < . < < < < < 8 ,.,.,.,.        ",
"          ,.,.,.-.1 < < < < < < . * v R P ! P P 4 v o < < < < < < < < < < < r c ) ! P P P E k t < < < < . . 2 ,.,.,.,.          ",
"            ,.,.,.} < < < < < < < < q B P ! ! ! k s X < < < < . < < < < < < . s j / P P P : v + < < < < . 1 #.,.,.,.            ",
"            ,.,.,.,.7 < < < < < < < $ v x V N e q + X < < < < < < < < < < < < X d b n V z v p < < < < < < 9 ,.,.,.,.            ",
"              ,.,.,.,.6 < < < < < < < + t d s a o X < < < < < < < < < < < < < < < = s f i & < < . < < < 8 ,.,.,.,.              ",
"                ,.,.,.,.3 < < < < < < < < < < < < < < < < < < < < < < < < < < < < < < < < < < < . . < 7 ,.,.,.,.                ",
"                ,.,.,.,.>.3 < < < < < < < < < < < < . < < < < < < < < < < < < < < < < < < < < < . . 7 ,.,.,.,.,.                ",
"                  ,.,.,.,.,.6 < < < < < < < < < < < < < < < . < < < < < < < < < < < < < < < < < < 8 ,.,.,.,.,.                  ",
"                    ,.,.,.,.>.9 < . < < < < < < < < < . < < < < < . < < < < < < < < < < < < < 1 } ,.,.,.,.,.                    ",
"                      ,.,.,.,.,.*.3 < < < < < < < < < < < < < < < < < < . < < < < < < < < < 6 -.,.,.,.,.,.                      ",
"                        ,.,.,.,.,.,.9 1 < < < < < < < < < < < < < < < < < < < < < < < < 2 | ,.,.,.,.,.,.                        ",
"                          ,.,.,.,.,.,.,.9 2 < < < < < < < < < . < . < < < < < < . < 3 | ,.,.,.,.,.,.,.                          ",
"                              ,.,.,.,.,.,.,.*.7 2 < < < < < < . < < < . < < < 3 8 *.,.,.,.,.,.,.,.                              ",
"                                ,.,.,.,.,.,.,.,.,.-.| 8 6 3 2 2 2 2 6 6 8  .,.,.,.,.,.,.,.,.,.,.                                ",
"                                    ,.,.,.,.,.,.,.,.,.,.,.,.,.,.,.,.-.>.,.,.,.,.,.,.,.,.,.,.                                    ",
"                                        ,.,.,.,.,.,.,.,.,.,.,.,.,.,.,.,.,.,.,.,.,.,.,.,.                                        ",
"                                              ,.,.,.,.,.,.,.,.,.,.,.,.,.,.,.,.,.,.                                              ",
"                                                        ,.,.,.,.,.,.,.,.                                                        ",
"                                                                                                                                "
};
